<mxfile host="app.diagrams.net" modified="2023-09-20T09:05:41.314Z" agent="Mozilla/5.0 (Windows NT 10.0; Win64; x64) AppleWebKit/537.36 (KHTML, like Gecko) Chrome/117.0.0.0 Safari/537.36" etag="PzElmF-WjaqsSNEwBws9" version="21.7.5" type="github">
  <diagram id="prtHgNgQTEPvFCAcTncT" name="Page-1">
    <mxGraphModel dx="1687" dy="1894" grid="1" gridSize="10" guides="1" tooltips="1" connect="1" arrows="1" fold="1" page="1" pageScale="1" pageWidth="1169" pageHeight="827" math="0" shadow="0">
      <root>
        <mxCell id="0" />
        <mxCell id="1" parent="0" />
        <mxCell id="nyJrhWXouSdRMjxt2GVp-8" value="index" style="swimlane;whiteSpace=wrap;html=1;" vertex="1" parent="1">
          <mxGeometry x="220" y="70" width="370" height="340" as="geometry" />
        </mxCell>
        <mxCell id="nyJrhWXouSdRMjxt2GVp-12" value="로그인" style="rounded=0;whiteSpace=wrap;html=1;" vertex="1" parent="nyJrhWXouSdRMjxt2GVp-8">
          <mxGeometry x="90" y="70" width="120" height="60" as="geometry" />
        </mxCell>
        <mxCell id="nyJrhWXouSdRMjxt2GVp-13" value="쇼핑몰" style="rounded=0;whiteSpace=wrap;html=1;" vertex="1" parent="nyJrhWXouSdRMjxt2GVp-8">
          <mxGeometry x="90" y="180" width="120" height="60" as="geometry" />
        </mxCell>
        <mxCell id="nyJrhWXouSdRMjxt2GVp-34" value="" style="edgeStyle=orthogonalEdgeStyle;rounded=0;orthogonalLoop=1;jettySize=auto;html=1;" edge="1" parent="1" source="nyJrhWXouSdRMjxt2GVp-16" target="nyJrhWXouSdRMjxt2GVp-33">
          <mxGeometry relative="1" as="geometry" />
        </mxCell>
        <mxCell id="nyJrhWXouSdRMjxt2GVp-16" value="로그인 창" style="whiteSpace=wrap;html=1;aspect=fixed;" vertex="1" parent="1">
          <mxGeometry x="328" y="-249" width="257" height="257" as="geometry" />
        </mxCell>
        <mxCell id="nyJrhWXouSdRMjxt2GVp-19" value="쇼핑몰에 오신 것을 환영합니다.&lt;br&gt;&lt;br&gt;&lt;br&gt;&lt;br&gt;&lt;br&gt;&lt;br&gt;&lt;br&gt;&lt;br&gt;&lt;br&gt;&lt;br&gt;&lt;br&gt;&lt;br&gt;&lt;br&gt;&lt;br&gt;" style="rounded=0;whiteSpace=wrap;html=1;" vertex="1" parent="1">
          <mxGeometry x="687" y="74" width="373" height="306" as="geometry" />
        </mxCell>
        <mxCell id="nyJrhWXouSdRMjxt2GVp-20" value="f" style="endArrow=classic;html=1;rounded=0;exitX=0.5;exitY=1;exitDx=0;exitDy=0;" edge="1" parent="1" source="nyJrhWXouSdRMjxt2GVp-13">
          <mxGeometry relative="1" as="geometry">
            <mxPoint x="590" y="314" as="sourcePoint" />
            <mxPoint x="880" y="380" as="targetPoint" />
            <Array as="points">
              <mxPoint x="370" y="520" />
              <mxPoint x="590" y="520" />
              <mxPoint x="880" y="520" />
            </Array>
          </mxGeometry>
        </mxCell>
        <mxCell id="nyJrhWXouSdRMjxt2GVp-21" value="로그인을 했을 때에만 접속 가능" style="edgeLabel;resizable=0;html=1;align=center;verticalAlign=middle;fontStyle=1" connectable="0" vertex="1" parent="nyJrhWXouSdRMjxt2GVp-20">
          <mxGeometry relative="1" as="geometry" />
        </mxCell>
        <mxCell id="nyJrhWXouSdRMjxt2GVp-23" value="" style="endArrow=classic;html=1;rounded=0;entryX=1;entryY=0.5;entryDx=0;entryDy=0;" edge="1" parent="1" target="nyJrhWXouSdRMjxt2GVp-16">
          <mxGeometry relative="1" as="geometry">
            <mxPoint x="880" y="70" as="sourcePoint" />
            <mxPoint x="877" y="34" as="targetPoint" />
            <Array as="points">
              <mxPoint x="880" y="-120" />
            </Array>
          </mxGeometry>
        </mxCell>
        <mxCell id="nyJrhWXouSdRMjxt2GVp-24" value="로그인이 안됐을 때 자동 이동" style="edgeLabel;resizable=0;html=1;align=center;verticalAlign=middle;fontStyle=1" connectable="0" vertex="1" parent="nyJrhWXouSdRMjxt2GVp-23">
          <mxGeometry relative="1" as="geometry" />
        </mxCell>
        <mxCell id="nyJrhWXouSdRMjxt2GVp-29" value="" style="endArrow=classic;html=1;rounded=0;exitX=0.991;exitY=0.818;exitDx=0;exitDy=0;exitPerimeter=0;" edge="1" parent="1" source="nyJrhWXouSdRMjxt2GVp-16">
          <mxGeometry relative="1" as="geometry">
            <mxPoint x="647" y="4" as="sourcePoint" />
            <mxPoint x="760" y="70" as="targetPoint" />
            <Array as="points">
              <mxPoint x="760" y="-39" />
            </Array>
          </mxGeometry>
        </mxCell>
        <mxCell id="nyJrhWXouSdRMjxt2GVp-30" value="로그인이 됐을 때 자동 이동" style="edgeLabel;resizable=0;html=1;align=center;verticalAlign=middle;fontStyle=1" connectable="0" vertex="1" parent="nyJrhWXouSdRMjxt2GVp-29">
          <mxGeometry relative="1" as="geometry">
            <mxPoint x="-8" as="offset" />
          </mxGeometry>
        </mxCell>
        <mxCell id="nyJrhWXouSdRMjxt2GVp-33" value="로그인이 안되면 다시 새로고침" style="ellipse;whiteSpace=wrap;html=1;" vertex="1" parent="1">
          <mxGeometry x="70" y="-190" width="110" height="89.5" as="geometry" />
        </mxCell>
        <mxCell id="nyJrhWXouSdRMjxt2GVp-41" value="" style="endArrow=classic;html=1;rounded=0;exitX=0.791;exitY=0.123;exitDx=0;exitDy=0;exitPerimeter=0;" edge="1" parent="1" source="nyJrhWXouSdRMjxt2GVp-33">
          <mxGeometry width="50" height="50" relative="1" as="geometry">
            <mxPoint x="120" y="-190" as="sourcePoint" />
            <mxPoint x="460" y="-250" as="targetPoint" />
            <Array as="points">
              <mxPoint x="160" y="-390" />
              <mxPoint x="460" y="-390" />
            </Array>
          </mxGeometry>
        </mxCell>
        <mxCell id="nyJrhWXouSdRMjxt2GVp-44" style="edgeStyle=orthogonalEdgeStyle;rounded=0;orthogonalLoop=1;jettySize=auto;html=1;entryX=0.903;entryY=1.008;entryDx=0;entryDy=0;entryPerimeter=0;" edge="1" parent="1" source="nyJrhWXouSdRMjxt2GVp-42" target="nyJrhWXouSdRMjxt2GVp-16">
          <mxGeometry relative="1" as="geometry" />
        </mxCell>
        <mxCell id="nyJrhWXouSdRMjxt2GVp-42" value="로그아웃" style="rounded=0;whiteSpace=wrap;html=1;" vertex="1" parent="1">
          <mxGeometry x="820" y="160" width="120" height="60" as="geometry" />
        </mxCell>
        <mxCell id="nyJrhWXouSdRMjxt2GVp-45" style="edgeStyle=orthogonalEdgeStyle;rounded=0;orthogonalLoop=1;jettySize=auto;html=1;" edge="1" parent="1" source="nyJrhWXouSdRMjxt2GVp-43">
          <mxGeometry relative="1" as="geometry">
            <mxPoint x="590" y="280" as="targetPoint" />
          </mxGeometry>
        </mxCell>
        <mxCell id="nyJrhWXouSdRMjxt2GVp-43" value="메인 페이지" style="rounded=0;whiteSpace=wrap;html=1;" vertex="1" parent="1">
          <mxGeometry x="820" y="250" width="120" height="60" as="geometry" />
        </mxCell>
        <mxCell id="nyJrhWXouSdRMjxt2GVp-32" style="edgeStyle=orthogonalEdgeStyle;rounded=0;orthogonalLoop=1;jettySize=auto;html=1;exitX=0.25;exitY=0;exitDx=0;exitDy=0;entryX=0.074;entryY=1.015;entryDx=0;entryDy=0;entryPerimeter=0;" edge="1" parent="1" source="nyJrhWXouSdRMjxt2GVp-12" target="nyJrhWXouSdRMjxt2GVp-16">
          <mxGeometry relative="1" as="geometry">
            <mxPoint x="330" y="-13" as="targetPoint" />
          </mxGeometry>
        </mxCell>
        <mxCell id="nyJrhWXouSdRMjxt2GVp-47" style="edgeStyle=orthogonalEdgeStyle;rounded=0;orthogonalLoop=1;jettySize=auto;html=1;entryX=0.668;entryY=-0.001;entryDx=0;entryDy=0;entryPerimeter=0;" edge="1" parent="1" source="nyJrhWXouSdRMjxt2GVp-46" target="nyJrhWXouSdRMjxt2GVp-8">
          <mxGeometry relative="1" as="geometry" />
        </mxCell>
        <mxCell id="nyJrhWXouSdRMjxt2GVp-46" value="메인 페이지" style="rounded=0;whiteSpace=wrap;html=1;" vertex="1" parent="1">
          <mxGeometry x="390" y="-90" width="120" height="60" as="geometry" />
        </mxCell>
        <mxCell id="nyJrhWXouSdRMjxt2GVp-55" value="" style="endArrow=classic;html=1;rounded=0;exitX=0;exitY=0.5;exitDx=0;exitDy=0;entryX=-0.017;entryY=0.805;entryDx=0;entryDy=0;entryPerimeter=0;" edge="1" parent="1" source="nyJrhWXouSdRMjxt2GVp-13" target="nyJrhWXouSdRMjxt2GVp-16">
          <mxGeometry width="50" height="50" relative="1" as="geometry">
            <mxPoint x="90" y="58" as="sourcePoint" />
            <mxPoint x="140" y="8" as="targetPoint" />
            <Array as="points">
              <mxPoint x="80" y="280" />
              <mxPoint x="80" y="-42" />
            </Array>
          </mxGeometry>
        </mxCell>
        <mxCell id="nyJrhWXouSdRMjxt2GVp-56" value="로그인 안했을 때 자동 이동" style="edgeLabel;html=1;align=center;verticalAlign=middle;resizable=0;points=[];fontStyle=1" vertex="1" connectable="0" parent="nyJrhWXouSdRMjxt2GVp-55">
          <mxGeometry x="0.1013" y="-2" relative="1" as="geometry">
            <mxPoint as="offset" />
          </mxGeometry>
        </mxCell>
      </root>
    </mxGraphModel>
  </diagram>
</mxfile>
